<svg id="Layer_1" data-name="Layer 1" xmlns="http://www.w3.org/2000/svg" viewBox="0 0 41.97 46.01"><defs><style>.cls-1{fill:none;stroke:#000;stroke-linecap:round;stroke-linejoin:round;stroke-width:1.5px;}</style></defs><title>basket3</title><path class="cls-1" d="M37.19,45.5H6.34A4.65,4.65,0,0,1,1.53,41c0-.16,0-.32,0-.48L2.93,17.29A4.89,4.89,0,0,1,7.74,12.8H35.8a4.77,4.77,0,0,1,4.8,4.49L42,40.54a4.76,4.76,0,0,1-4.56,5Z" transform="translate(-0.78 -0.25)"/><path class="cls-1" d="M31.52,19V9.27C31.52,4.68,27.38,1,22.17,1s-9.34,3.6-9.34,8.27V19" transform="translate(-0.78 -0.25)"/><path class="cls-1" d="M21.36,26.81h0a3.65,3.65,0,0,1-3.86-3.39V12.8h7.79V23.39a3.53,3.53,0,0,1-3.62,3.43Z" transform="translate(-0.78 -0.25)"/></svg>